<svg width="78" height="71" viewBox="0 0 78 71" fill="none" xmlns="http://www.w3.org/2000/svg">
<path d="M14.525 58.7083V41.2H32.95V58.7083V41.2H14.525V58.7083ZM0.5 60.175V32.3083C0.5 31.5139 0.683333 30.7194 1.05 29.925C1.41667 29.1306 1.96667 28.4889 2.7 28L20.6667 15.1667C21.5833 14.5556 22.6069 14.25 23.7375 14.25C24.8681 14.25 25.8917 14.5556 26.8083 15.1667L44.6833 28C45.4167 28.4889 45.9667 29.1458 46.3333 29.9708C46.7 30.7958 46.8833 31.6361 46.8833 32.4917V36.8C46.0889 37.5333 45.3403 38.2972 44.6375 39.0917C43.9347 39.8861 43.3083 40.7722 42.7583 41.75V31.7583L23.6917 18.1917L4.625 31.7583V58.7083H14.525V41.2H32.95V58.7083H39.1833C39.3056 59.4417 39.4736 60.1444 39.6875 60.8167C39.9014 61.4889 40.1611 62.1611 40.4667 62.8333H28.7333V45.325H18.65V62.8333H3.15833C2.425 62.8333 1.79861 62.5736 1.27917 62.0542C0.759722 61.5347 0.5 60.9083 0.5 60.175ZM77.5 4.625V37.9C76.8889 37.1667 76.2319 36.5403 75.5292 36.0208C74.8264 35.5014 74.1083 34.9972 73.375 34.5083V4.625H36.8917V14.9833L32.7667 12.1417V4.71667C32.7667 3.55556 33.1639 2.5625 33.9583 1.7375C34.7528 0.9125 35.7306 0.5 36.8917 0.5H73.375C74.475 0.5 75.4375 0.9125 76.2625 1.7375C77.0875 2.5625 77.5 3.525 77.5 4.625ZM58.8917 18.7417H64.025V13.5167H58.8917V18.7417ZM61.825 70.1667C57.4861 70.1667 53.7889 68.6236 50.7333 65.5375C47.6778 62.4514 46.15 58.8 46.15 54.5833C46.15 50.1833 47.6778 46.4403 50.7333 43.3542C53.7889 40.2681 57.5167 38.725 61.9167 38.725C66.1944 38.725 69.8764 40.2681 72.9625 43.3542C76.0486 46.4403 77.5917 50.1833 77.5917 54.5833C77.5917 58.8 76.0486 62.4514 72.9625 65.5375C69.8764 68.6236 66.1639 70.1667 61.825 70.1667ZM60.5417 55.9583V64.3917C60.5417 64.8194 60.6944 65.1556 61 65.4C61.3056 65.6444 61.6417 65.7667 62.0083 65.7667C62.375 65.7667 62.6958 65.6292 62.9708 65.3542C63.2458 65.0792 63.3833 64.7583 63.3833 64.3917V55.9583H71.8167C72.2444 55.9583 72.5806 55.8056 72.825 55.5C73.0694 55.1944 73.1917 54.8583 73.1917 54.4917C73.1917 54.125 73.0694 53.8194 72.825 53.575C72.5806 53.3306 72.2444 53.2083 71.8167 53.2083H63.3833V44.6833C63.3833 44.3167 63.2458 43.9958 62.9708 43.7208C62.6958 43.4458 62.375 43.3083 62.0083 43.3083C61.6417 43.3083 61.3056 43.4458 61 43.7208C60.6944 43.9958 60.5417 44.3167 60.5417 44.6833V53.2083H52.1083C51.7417 53.2083 51.4208 53.3306 51.1458 53.575C50.8708 53.8194 50.7333 54.125 50.7333 54.4917C50.7333 54.8583 50.8861 55.1944 51.1917 55.5C51.4972 55.8056 51.8333 55.9583 52.2 55.9583H60.5417Z" fill="#3A5295"/>
</svg>
