<svg width="70" height="70" viewBox="0 0 70 70" fill="none" xmlns="http://www.w3.org/2000/svg">
<path d="M2.91699 69.8337C2.12255 69.8337 1.4656 69.5739 0.946159 69.0545C0.426715 68.535 0.166992 67.8781 0.166992 67.0837V42.0587C0.166992 41.2642 0.426715 40.592 0.946159 40.042C1.4656 39.492 2.12255 39.217 2.91699 39.217H15.2003V19.692C15.2003 14.192 17.1253 9.56282 20.9753 5.80449C24.8253 2.04616 29.5003 0.166992 35.0003 0.166992H50.5837C55.9003 0.166992 60.4378 2.07671 64.1962 5.89616C67.9545 9.7156 69.8337 14.3142 69.8337 19.692V67.7253C69.8337 68.3364 69.635 68.8406 69.2378 69.2378C68.8406 69.635 68.3364 69.8337 67.7253 69.8337C67.1142 69.8337 66.6253 69.635 66.2587 69.2378C65.892 68.8406 65.7087 68.3364 65.7087 67.7253V59.1087H46.917V67.0837C46.917 67.8781 46.5962 68.535 45.9545 69.0545C45.3128 69.5739 44.5337 69.8337 43.617 69.8337H2.91699ZM46.917 54.9837H65.7087V19.692C65.7087 15.4142 64.2267 11.7781 61.2628 8.78366C58.2989 5.78921 54.7392 4.29199 50.5837 4.29199H35.0003C30.6614 4.29199 26.9795 5.77394 23.9545 8.73783C20.9295 11.7017 19.417 15.3531 19.417 19.692V39.217H43.617C44.5337 39.217 45.3128 39.4767 45.9545 39.9962C46.5962 40.5156 46.917 41.2031 46.917 42.0587V54.9837ZM30.692 25.742C30.0809 25.742 29.5767 25.5434 29.1795 25.1462C28.7823 24.7489 28.5837 24.2448 28.5837 23.6337C28.5837 23.0837 28.7823 22.5948 29.1795 22.167C29.5767 21.7392 30.0809 21.5253 30.692 21.5253H54.4337C54.9837 21.5253 55.4573 21.7392 55.8545 22.167C56.2517 22.5948 56.4503 23.0837 56.4503 23.6337C56.4503 24.2448 56.2517 24.7489 55.8545 25.1462C55.4573 25.5434 54.9837 25.742 54.4337 25.742H30.692ZM22.992 54.067C23.1142 54.1892 23.2823 54.2503 23.4962 54.2503C23.71 54.2503 23.9087 54.1892 24.092 54.067L42.7003 43.4337H4.29199L22.992 54.067ZM4.29199 65.7087H42.7003V47.467L26.2003 56.9087C25.7725 57.1531 25.3448 57.3364 24.917 57.4587C24.4892 57.5809 24.0309 57.642 23.542 57.642C23.0531 57.642 22.5948 57.5809 22.167 57.4587C21.7392 57.3364 21.3114 57.1531 20.8837 56.9087L4.29199 47.467V65.7087ZM4.29199 43.4337V48.017V47.467V65.7087V47.467V48.017V44.9003C4.29199 44.5948 4.29199 44.5948 4.29199 44.9003V43.4337Z" fill="#3A5295"/>
</svg>
